2D_gait_states
version=1
nRows=6
nColumns=39
inDegrees=yes

# SIMM Motion File Header:
name 2D_gait_states
datacolumns 39
datarows 6
otherdata 1
range 0.45643351 0.46299613
endheader
time	/hamstrings_r/activation	/bifemsh_r/activation	/glut_max_r/activation	/iliopsoas_r/activation	/rect_fem_r/activation	/vasti_r/activation	/gastroc_r/activation	/soleus_r/activation	/tib_ant_r/activation	/hamstrings_l/activation	/bifemsh_l/activation	/glut_max_l/activation	/iliopsoas_l/activation	/rect_fem_l/activation	/vasti_l/activation	/gastroc_l/activation	/soleus_l/activation	/tib_ant_l/activation	/jointset/groundPelvis/pelvis_tilt/value	/jointset/groundPelvis/pelvis_tilt/speed	/jointset/groundPelvis/pelvis_tx/value	/jointset/groundPelvis/pelvis_tx/speed	/jointset/groundPelvis/pelvis_ty/value	/jointset/groundPelvis/pelvis_ty/speed	/jointset/hip_l/hip_flexion_l/value	/jointset/hip_l/hip_flexion_l/speed	/jointset/hip_r/hip_flexion_r/value	/jointset/hip_r/hip_flexion_r/speed	/jointset/knee_l/knee_angle_l/value	/jointset/knee_l/knee_angle_l/speed	/jointset/knee_r/knee_angle_r/value	/jointset/knee_r/knee_angle_r/speed	/jointset/ankle_l/ankle_angle_l/value	/jointset/ankle_l/ankle_angle_l/speed	/jointset/ankle_r/ankle_angle_r/value	/jointset/ankle_r/ankle_angle_r/speed	/jointset/lumbar/lumbar/value	/jointset/lumbar/lumbar/speed
      0.45643351	      0.00000002	      0.00000002	      0.00000002	      0.00000002	      0.00000002	      0.00000002	      0.00000002	      0.00000002	      0.00000002	      0.00000002	      0.00000002	      0.00000002	      0.00000002	      0.00000002	      0.00000002	      0.00000002	      0.00000002	      0.00000002	      0.14142299	     18.82596440	      2.36894094	     -0.28987687	      0.90909028	     -0.19677479	     -0.00000000	     -0.00000000	      0.00000000	     -0.00000000	     -0.00000000	      0.00000000	      0.00000000	      0.00000000	      0.00000000	     -0.00000000	     -0.00000000	     -0.00000000	      0.00000000	      0.00000000
      0.45735729	      0.00000002	      0.00000002	      0.00000002	      0.00000002	      0.00000002	      0.00000002	      0.00000002	      0.00000002	      0.00000002	      0.00000002	      0.00000002	      0.00000002	      0.00000002	      0.00000002	      0.00000002	      0.00000002	      0.00000002	      0.00000002	      0.15902726	     19.27125159	      2.36866969	     -0.29711227	      0.90895982	     -0.08985087	     -0.00000000	     -0.00000000	      0.00000000	     -0.00000000	     -0.00000000	      0.00000000	      0.00000000	      0.00000000	      0.00000000	     -0.00000000	     -0.00000000	     -0.00000000	      0.00000000	      0.00000000
      0.45828108	      0.00000002	      0.00000002	      0.00000002	      0.00000002	      0.00000002	      0.00000002	      0.00000002	      0.00000002	      0.00000002	      0.00000002	      0.00000002	      0.00000002	      0.00000002	      0.00000002	      0.00000002	      0.00000002	      0.00000002	      0.00000002	      0.17699706	     19.62002756	      2.36839245	     -0.30289707	      0.90891732	     -0.00553781	     -0.00000000	     -0.00000000	      0.00000000	     -0.00000000	     -0.00000000	      0.00000000	      0.00000000	      0.00000000	      0.00000000	     -0.00000000	     -0.00000000	     -0.00000000	      0.00000000	      0.00000000
      0.45973256	      0.00000002	      0.00000002	      0.00000002	      0.00000002	      0.00000002	      0.00000002	      0.00000002	      0.00000002	      0.00000002	      0.00000002	      0.00000002	      0.00000002	      0.00000002	      0.00000002	      0.00000002	      0.00000002	      0.00000002	      0.00000002	      0.20578618	     20.02424645	      2.36794756	     -0.30970661	      0.90898444	      0.09179094	     -0.00000000	     -0.00000000	      0.00000000	     -0.00000000	     -0.00000000	      0.00000000	      0.00000000	      0.00000000	      0.00000000	     -0.00000000	     -0.00000000	     -0.00000000	      0.00000000	      0.00000000
      0.46118405	      0.00000002	      0.00000002	      0.00000002	      0.00000002	      0.00000002	      0.00000002	      0.00000002	      0.00000002	      0.00000002	      0.00000002	      0.00000002	      0.00000002	      0.00000002	      0.00000002	      0.00000002	      0.00000002	      0.00000002	      0.00000002	      0.23506093	     20.29621438	      2.36749434	     -0.31450522	      0.90916875	      0.15788535	     -0.00000000	     -0.00000000	      0.00000000	     -0.00000000	     -0.00000000	      0.00000000	      0.00000000	      0.00000000	      0.00000000	     -0.00000000	     -0.00000000	     -0.00000000	      0.00000000	      0.00000000
      0.46299613	      0.00000001	      0.00000001	      0.00000001	      0.00000001	      0.00000001	      0.00000001	      0.00000001	      0.00000001	      0.00000001	      0.00000001	      0.00000001	      0.00000001	      0.00000001	      0.00000001	      0.00000001	      0.00000001	      0.00000001	      0.00000001	      0.27205110	     20.51224568	      2.36692044	     -0.31861870	      0.90950714	      0.21124869	     -0.00000000	     -0.00000000	      0.00000000	     -0.00000000	     -0.00000000	      0.00000000	      0.00000000	      0.00000000	      0.00000000	     -0.00000000	     -0.00000000	     -0.00000000	      0.00000000	      0.00000000
